<?xml version="1.0" standalone="no"?>
<!DOCTYPE svg PUBLIC "-//W3C//DTD SVG 20010904//EN"
 "http://www.w3.org/TR/2001/REC-SVG-20010904/DTD/svg10.dtd">
<svg version="1.0" xmlns="http://www.w3.org/2000/svg"
 width="640.000000pt" height="640.000000pt" viewBox="0 0 640.000000 640.000000"
 preserveAspectRatio="xMidYMid meet">

<g transform="translate(0.000000,640.000000) scale(0.100000,-0.100000)"
fill="#000000" stroke="none">
<path d="M0 3200 l0 -3200 3200 0 3200 0 0 3200 0 3200 -3200 0 -3200 0 0
-3200z m3521 1859 c402 -72 704 -230 986 -516 252 -255 412 -582 469 -953 19
-125 21 -371 5 -490 -73 -525 -372 -981 -834 -1269 -157 -97 -388 -183 -598
-222 -123 -23 -134 -23 -1085 -27 l-961 -3 -4 23 c-2 13 -1 460 2 993 l5 970
26 115 c65 281 167 506 325 713 71 93 225 253 298 308 17 13 32 26 35 30 16
21 202 130 300 177 177 84 393 145 580 165 118 13 343 6 451 -14z m-168 -3906
c4 -2 7 -44 7 -93 0 -81 -2 -90 -21 -101 -12 -6 -36 -8 -55 -4 l-34 6 0 95 c0
89 1 95 23 103 20 8 60 5 80 -6z m455 11 c21 -6 22 -11 22 -110 0 -97 -1 -104
-20 -104 -17 0 -20 7 -20 39 0 55 -18 61 -22 9 -2 -35 -7 -43 -23 -43 -18 0
-20 7 -22 93 -1 116 12 135 85 116z m-1717 -99 l5 -90 2 93 c2 85 4 92 22 92
18 0 20 -7 20 -84 0 -47 5 -88 10 -91 6 -4 10 27 10 85 0 88 1 91 21 88 20 -3
22 -10 26 -97 3 -70 1 -96 -9 -102 -15 -10 -119 -12 -142 -3 -13 5 -16 24 -16
106 0 97 0 99 23 96 20 -3 22 -9 28 -93z m209 3 c0 -50 3 -88 7 -85 3 4 5 36
4 72 -3 79 4 105 30 105 17 0 19 -8 20 -92 1 -78 3 -87 10 -53 5 22 8 63 7 90
-2 45 0 50 20 53 21 3 22 1 22 -96 0 -82 -3 -101 -16 -106 -29 -11 -131 -6
-142 7 -6 7 -8 48 -5 105 5 81 8 92 24 92 17 0 19 -9 19 -92z m210 1 c0 -57 4
-88 10 -84 6 3 10 44 10 91 0 77 2 84 20 84 19 0 20 -7 20 -92 0 -50 3 -88 7
-84 4 4 7 44 8 89 0 77 1 82 23 85 22 3 22 1 22 -97 0 -116 1 -115 -101 -109
l-54 3 -3 103 c-3 97 -2 102 18 102 19 0 20 -6 20 -91z m368 -8 c3 -105 0
-111 -60 -111 l-38 0 0 106 0 105 48 -3 47 -3 3 -94z m142 79 c0 -13 -7 -20
-20 -20 -27 0 -27 -36 0 -43 23 -6 17 -37 -7 -37 -9 0 -13 -8 -11 -22 2 -13
10 -23 18 -23 8 0 16 -10 18 -22 3 -21 -1 -23 -42 -23 l-46 0 0 105 0 105 45
0 c38 0 45 -3 45 -20z m108 -2 l11 -23 7 23 c4 15 14 22 30 22 24 0 24 -1 24
-105 0 -98 -1 -105 -20 -105 -18 0 -20 7 -20 58 -1 44 -3 53 -11 39 -6 -9 -14
-15 -20 -12 -5 4 -9 -14 -9 -39 0 -42 -2 -46 -25 -46 l-25 0 0 105 c0 104 0
105 23 105 15 0 28 -9 35 -22z m322 -24 c0 -27 4 -43 10 -39 6 3 10 24 10 46
0 32 3 39 19 39 19 0 20 -8 20 -105 0 -97 -2 -105 -20 -105 -16 0 -19 7 -19
45 0 25 -4 45 -10 45 -5 0 -10 -20 -10 -45 0 -38 -3 -45 -20 -45 -19 0 -20 7
-20 105 0 98 1 105 20 105 17 0 20 -7 20 -46z m208 34 c6 -7 9 -53 9 -103 -2
-83 -4 -90 -22 -90 -16 0 -21 8 -24 45 l-5 45 -5 -45 c-5 -36 -10 -45 -26 -45
-18 0 -20 8 -23 89 -2 49 -1 95 2 103 7 17 80 17 94 1z m317 3 c3 -5 -1 -16
-9 -24 -10 -10 -16 -41 -18 -93 -3 -71 -5 -79 -23 -79 -18 0 -20 8 -23 83 -2
64 -6 82 -17 82 -8 0 -15 9 -15 20 0 17 7 20 49 20 28 0 52 -4 56 -9z m167
-77 c-2 -51 0 -84 7 -89 8 -4 11 22 11 84 l0 91 26 0 26 0 -7 -97 c-4 -55 -12
-101 -19 -105 -14 -10 -58 -10 -73 0 -7 4 -12 42 -13 97 -3 113 -4 107 22 103
22 -3 23 -7 20 -84z m198 73 c0 -6 -9 -42 -19 -79 -18 -61 -18 -69 -4 -77 28
-15 8 -41 -32 -41 -40 0 -41 3 -20 83 8 32 15 65 15 72 0 8 -7 15 -15 15 -8 0
-15 9 -15 20 0 17 7 20 45 20 29 0 45 -4 45 -13z m-1616 -163 c8 -21 -1 -34
-25 -34 -14 0 -19 7 -19 25 0 29 34 36 44 9z m1321 -9 c0 -13 -8 -21 -22 -23
-19 -3 -23 1 -23 23 0 22 4 26 23 23 14 -2 22 -10 22 -23z"/>
<path d="M3185 4298 c-187 -12 -375 -87 -531 -212 -136 -109 -240 -251 -303
-415 -59 -154 -61 -177 -61 -781 l0 -550 543 0 c335 0 566 4 603 11 282 50
529 218 676 462 56 93 101 209 123 311 20 99 20 294 -1 394 -60 289 -257 547
-520 680 -169 85 -321 114 -529 100z"/>
<path d="M3303 1055 c0 -44 2 -61 4 -37 2 23 2 59 0 80 -2 20 -4 1 -4 -43z"/>
<path d="M3770 1103 c0 -18 5 -33 10 -33 13 0 13 30 0 50 -7 11 -10 7 -10 -17z"/>
<path d="M2820 1055 c0 -37 4 -65 10 -65 6 0 10 28 10 65 0 37 -4 65 -10 65
-6 0 -10 -28 -10 -65z"/>
<path d="M3612 1100 c0 -19 2 -27 5 -17 2 9 2 25 0 35 -3 9 -5 1 -5 -18z"/>
</g>
</svg>
